<mxfile host="app.diagrams.net" modified="2023-11-27T01:40:09.010Z" agent="Mozilla/5.0 (X11; Linux x86_64; rv:120.0) Gecko/20100101 Firefox/120.0" etag="6ViEOaxJaPGl8uMBb5pB" version="22.1.4" type="github">
  <diagram id="6a731a19-8d31-9384-78a2-239565b7b9f0" name="Page-1">
    <mxGraphModel dx="1687" dy="885" grid="1" gridSize="10" guides="1" tooltips="1" connect="1" arrows="1" fold="1" page="1" pageScale="1" pageWidth="1169" pageHeight="827" background="none" math="0" shadow="0">
      <root>
        <mxCell id="0" />
        <mxCell id="1" parent="0" />
        <mxCell id="vPjzms_0MhAwihhRe5IF-82" style="edgeStyle=orthogonalEdgeStyle;rounded=0;orthogonalLoop=1;jettySize=auto;html=1;exitX=0.5;exitY=1;exitDx=0;exitDy=0;" edge="1" parent="1" source="vPjzms_0MhAwihhRe5IF-55" target="vPjzms_0MhAwihhRe5IF-56">
          <mxGeometry relative="1" as="geometry" />
        </mxCell>
        <mxCell id="vPjzms_0MhAwihhRe5IF-83" value="Inicia sesion" style="edgeLabel;html=1;align=center;verticalAlign=middle;resizable=0;points=[];" vertex="1" connectable="0" parent="vPjzms_0MhAwihhRe5IF-82">
          <mxGeometry x="-0.075" y="-1" relative="1" as="geometry">
            <mxPoint as="offset" />
          </mxGeometry>
        </mxCell>
        <mxCell id="vPjzms_0MhAwihhRe5IF-55" value="" style="image;aspect=fixed;perimeter=ellipsePerimeter;html=1;align=center;shadow=0;dashed=0;spacingTop=3;image=img/lib/active_directory/users.svg;" vertex="1" parent="1">
          <mxGeometry x="490.9200000000001" width="62.4" height="90" as="geometry" />
        </mxCell>
        <mxCell id="vPjzms_0MhAwihhRe5IF-56" value="" style="image;aspect=fixed;perimeter=ellipsePerimeter;html=1;align=center;shadow=0;dashed=0;spacingTop=3;image=img/lib/active_directory/home_page.svg;" vertex="1" parent="1">
          <mxGeometry x="473.4000000000001" y="170" width="97.44" height="85" as="geometry" />
        </mxCell>
        <mxCell id="vPjzms_0MhAwihhRe5IF-67" style="edgeStyle=orthogonalEdgeStyle;rounded=0;orthogonalLoop=1;jettySize=auto;html=1;exitX=0;exitY=0.5;exitDx=0;exitDy=0;exitPerimeter=0;" edge="1" parent="1" source="vPjzms_0MhAwihhRe5IF-63" target="vPjzms_0MhAwihhRe5IF-65">
          <mxGeometry relative="1" as="geometry" />
        </mxCell>
        <mxCell id="vPjzms_0MhAwihhRe5IF-68" value="Ver cotizaciones" style="edgeLabel;html=1;align=center;verticalAlign=middle;resizable=0;points=[];" vertex="1" connectable="0" parent="vPjzms_0MhAwihhRe5IF-67">
          <mxGeometry relative="1" as="geometry">
            <mxPoint as="offset" />
          </mxGeometry>
        </mxCell>
        <mxCell id="vPjzms_0MhAwihhRe5IF-63" value="&lt;div&gt;Cotizar / ver&amp;nbsp;&lt;/div&gt;&lt;div&gt;cotizaciones&lt;/div&gt;" style="shape=mxgraph.flowchart.decision;strokeWidth=2;gradientColor=none;gradientDirection=north;fontStyle=0;html=1;" vertex="1" parent="1">
          <mxGeometry x="455.3699999999999" y="295" width="131.95" height="75" as="geometry" />
        </mxCell>
        <mxCell id="vPjzms_0MhAwihhRe5IF-75" style="edgeStyle=orthogonalEdgeStyle;rounded=0;orthogonalLoop=1;jettySize=auto;html=1;exitX=0.095;exitY=0.5;exitDx=0;exitDy=0;exitPerimeter=0;" edge="1" parent="1" source="vPjzms_0MhAwihhRe5IF-65">
          <mxGeometry relative="1" as="geometry">
            <mxPoint x="134" y="333" as="targetPoint" />
          </mxGeometry>
        </mxCell>
        <mxCell id="vPjzms_0MhAwihhRe5IF-65" value="&lt;div&gt;Tabla con&amp;nbsp;&lt;/div&gt;&lt;div&gt;cotizaciones&lt;/div&gt;" style="shape=mxgraph.flowchart.data;strokeWidth=2;gradientColor=none;gradientDirection=north;fontStyle=0;html=1;" vertex="1" parent="1">
          <mxGeometry x="199.75" y="302.5" width="122.25" height="60" as="geometry" />
        </mxCell>
        <mxCell id="vPjzms_0MhAwihhRe5IF-66" style="edgeStyle=orthogonalEdgeStyle;rounded=0;orthogonalLoop=1;jettySize=auto;html=1;exitX=0.5;exitY=1;exitDx=0;exitDy=0;entryX=0.5;entryY=0;entryDx=0;entryDy=0;entryPerimeter=0;" edge="1" parent="1" source="vPjzms_0MhAwihhRe5IF-56" target="vPjzms_0MhAwihhRe5IF-63">
          <mxGeometry relative="1" as="geometry" />
        </mxCell>
        <mxCell id="vPjzms_0MhAwihhRe5IF-70" style="edgeStyle=orthogonalEdgeStyle;rounded=0;orthogonalLoop=1;jettySize=auto;html=1;" edge="1" parent="1" source="vPjzms_0MhAwihhRe5IF-63" target="vPjzms_0MhAwihhRe5IF-88">
          <mxGeometry relative="1" as="geometry">
            <mxPoint x="710" y="333" as="targetPoint" />
          </mxGeometry>
        </mxCell>
        <mxCell id="vPjzms_0MhAwihhRe5IF-71" value="Cotizar" style="edgeLabel;html=1;align=center;verticalAlign=middle;resizable=0;points=[];" vertex="1" connectable="0" parent="vPjzms_0MhAwihhRe5IF-70">
          <mxGeometry relative="1" as="geometry">
            <mxPoint as="offset" />
          </mxGeometry>
        </mxCell>
        <mxCell id="vPjzms_0MhAwihhRe5IF-77" style="edgeStyle=orthogonalEdgeStyle;rounded=0;orthogonalLoop=1;jettySize=auto;html=1;" edge="1" parent="1" source="vPjzms_0MhAwihhRe5IF-72" target="vPjzms_0MhAwihhRe5IF-74">
          <mxGeometry relative="1" as="geometry" />
        </mxCell>
        <mxCell id="vPjzms_0MhAwihhRe5IF-72" value="" style="image;aspect=fixed;perimeter=ellipsePerimeter;html=1;align=center;shadow=0;dashed=0;spacingTop=3;image=img/lib/active_directory/database.svg;" vertex="1" parent="1">
          <mxGeometry x="219.65999999999997" y="520" width="82.43" height="61" as="geometry" />
        </mxCell>
        <mxCell id="vPjzms_0MhAwihhRe5IF-74" value="&lt;div&gt;Trae&amp;nbsp;&lt;/div&gt;&lt;div&gt;cotizaciones&lt;/div&gt;" style="shape=mxgraph.flowchart.data;strokeWidth=2;gradientColor=none;gradientDirection=north;fontStyle=0;html=1;" vertex="1" parent="1">
          <mxGeometry x="199.75" y="405" width="122.25" height="60" as="geometry" />
        </mxCell>
        <mxCell id="vPjzms_0MhAwihhRe5IF-78" style="edgeStyle=orthogonalEdgeStyle;rounded=0;orthogonalLoop=1;jettySize=auto;html=1;exitX=0.5;exitY=0;exitDx=0;exitDy=0;exitPerimeter=0;entryX=0.5;entryY=1;entryDx=0;entryDy=0;entryPerimeter=0;" edge="1" parent="1" source="vPjzms_0MhAwihhRe5IF-74" target="vPjzms_0MhAwihhRe5IF-65">
          <mxGeometry relative="1" as="geometry" />
        </mxCell>
        <mxCell id="vPjzms_0MhAwihhRe5IF-81" style="edgeStyle=orthogonalEdgeStyle;rounded=0;orthogonalLoop=1;jettySize=auto;html=1;entryX=0.5;entryY=1;entryDx=0;entryDy=0;" edge="1" parent="1" source="vPjzms_0MhAwihhRe5IF-79" target="vPjzms_0MhAwihhRe5IF-80">
          <mxGeometry relative="1" as="geometry" />
        </mxCell>
        <mxCell id="vPjzms_0MhAwihhRe5IF-79" value="&lt;div&gt;Imprimir / obtener&amp;nbsp;&lt;/div&gt;&lt;div&gt;cotizacion antigua&lt;br&gt;&lt;/div&gt;" style="shape=mxgraph.flowchart.data;strokeWidth=2;gradientColor=none;gradientDirection=north;fontStyle=0;html=1;" vertex="1" parent="1">
          <mxGeometry x="2" y="302.5" width="152.25" height="60" as="geometry" />
        </mxCell>
        <mxCell id="vPjzms_0MhAwihhRe5IF-80" value="" style="image;aspect=fixed;perimeter=ellipsePerimeter;html=1;align=center;shadow=0;dashed=0;spacingTop=3;image=img/lib/active_directory/documents.svg;" vertex="1" parent="1">
          <mxGeometry x="55.39999999999998" y="180" width="46.2" height="70" as="geometry" />
        </mxCell>
        <mxCell id="vPjzms_0MhAwihhRe5IF-88" value="" style="sketch=0;pointerEvents=1;shadow=0;dashed=0;html=1;strokeColor=none;fillColor=#505050;labelPosition=center;verticalLabelPosition=bottom;verticalAlign=top;outlineConnect=0;align=center;shape=mxgraph.office.concepts.form;" vertex="1" parent="1">
          <mxGeometry x="694" y="290" width="97.14" height="85" as="geometry" />
        </mxCell>
      </root>
    </mxGraphModel>
  </diagram>
</mxfile>
